# xmcd
#
# Track frame offsets:
#	150
#	24102
#	39384
#	59053
#	76444
#	94754
#	115173
#	138453
#	153911
#	173846
#	192408
#	210346
#	229051
#	244751
#	261653
#	282146
#	298628
#	323482
#
# Disc length: 4558 seconds
#
# Revision: 0
# Processed by: cddbd v1.5.2PL0 Copyright (c) Steve Scherf et al.
# Submitted via: dBpowerAMP V4.0
#
DISCID=fa11cc12
DTITLE=aavv - compilations disks
DYEAR=1900
DGENRE=Blues
TTITLE0=a1
TTITLE1=a2
TTITLE2=a3
TTITLE3=a4
TTITLE4=a5
TTITLE5=a6
TTITLE6=a7
TTITLE7=a8
TTITLE8=a9
TTITLE9=a10
TTITLE10=a11
TTITLE11=a12
TTITLE12=a13
TTITLE13=a14
TTITLE14=a15
TTITLE15=a16
TTITLE16=a17
TTITLE17=a18
EXTD=compilation disks 
EXTT0=
EXTT1=
EXTT2=
EXTT3=
EXTT4=
EXTT5=
EXTT6=
EXTT7=
EXTT8=
EXTT9=
EXTT10=
EXTT11=
EXTT12=
EXTT13=
EXTT14=
EXTT15=
EXTT16=
EXTT17=
PLAYORDER=
